<svg width="235.792" height="189.375" viewBox="0 0 235.792 189.375" xmlns="http://www.w3.org/2000/svg"><g id="svgGroup" stroke-linecap="round" fill-rule="evenodd" font-size="9pt" stroke="#00000000" stroke-width="0.25mm" fill="#81a1c1" style="stroke:#00000000;stroke-width:0.25mm;fill:#81a1c1"><path d="M 6.667 164.875 L 11.417 153.875 L 62.792 0 L 118.042 106.75 L 171.667 0 L 235.792 184.875 L 168.667 184.875 L 137.667 89.375 L 89.667 189.375 L 39.167 99.375 L 21.667 154 A 161.562 161.562 0 0 0 19.111 159.948 Q 18.026 162.632 17.196 165.02 A 70.807 70.807 0 0 0 15.792 169.5 Q 14.042 175.875 12.917 179.375 A 18.426 18.426 0 0 1 11.704 182.35 Q 9.382 186.78 5.342 186.78 A 7.79 7.79 0 0 1 4.667 186.75 Q 2.292 186.5 1.042 184.625 A 5.984 5.984 0 0 1 0 181.24 A 6.694 6.694 0 0 1 0.042 180.5 A 22.7 22.7 0 0 1 1.984 174.223 A 21.213 21.213 0 0 1 2.417 173.375 A 406.22 406.22 0 0 0 3.233 171.852 Q 4.37 169.719 4.979 168.5 Q 5.792 166.875 6.667 164.875 Z" vector-effect="non-scaling-stroke"/></g></svg>
