<svg width="178.313" height="22.025" viewBox="0 0 178.313 22.025" xmlns="http://www.w3.org/2000/svg"><g id="svgGroup" stroke-linecap="round" fill-rule="evenodd" font-size="9pt" stroke="#00000000" stroke-width="0.25mm" fill="#81a1c1" style="stroke:#00000000;stroke-width:0.25mm;fill:#81a1c1"><path d="M 0.729 19.223 L 1.249 18.02 L 6.868 1.189 L 12.911 12.865 L 18.776 1.189 L 25.79 21.41 L 18.448 21.41 L 15.057 10.965 L 9.807 21.902 L 4.284 12.059 L 2.37 18.033 A 17.671 17.671 0 0 0 2.09 18.684 Q 1.972 18.977 1.881 19.239 A 7.744 7.744 0 0 0 1.727 19.729 Q 1.581 20.262 1.474 20.612 A 13.547 13.547 0 0 1 1.413 20.809 A 2.015 2.015 0 0 1 1.28 21.134 Q 1.026 21.619 0.584 21.619 A 0.852 0.852 0 0 1 0.51 21.615 A 0.581 0.581 0 0 1 0.313 21.561 A 0.506 0.506 0 0 1 0.114 21.383 A 0.655 0.655 0 0 1 0 21.013 A 0.732 0.732 0 0 1 0.005 20.932 A 2.483 2.483 0 0 1 0.217 20.245 A 2.321 2.321 0 0 1 0.264 20.152 Q 0.455 19.798 0.544 19.621 A 8.709 8.709 0 0 0 0.545 19.619 A 7.475 7.475 0 0 0 0.635 19.431 A 9.842 9.842 0 0 0 0.729 19.223 Z M 83.594 22.025 L 76.622 6.809 L 82.815 6.809 L 86.315 14.164 L 90.444 6.18 L 94.751 14.26 L 96.706 9.83 Q 97.321 8.422 97.511 7.756 A 3.489 3.489 0 0 0 97.56 7.567 A 4.569 4.569 0 0 1 97.63 7.294 Q 97.747 6.895 97.89 6.752 A 0.404 0.404 0 0 1 97.895 6.747 A 0.629 0.629 0 0 1 98.346 6.563 A 0.569 0.569 0 0 1 98.551 6.598 A 0.506 0.506 0 0 1 98.763 6.754 Q 98.921 6.945 98.921 7.089 A 1.811 1.811 0 0 1 98.909 7.297 A 1.591 1.591 0 0 1 98.9 7.362 Q 98.885 7.46 98.826 7.644 A 6.262 6.262 0 0 1 98.784 7.772 Q 98.711 7.987 98.565 8.318 A 16.008 16.008 0 0 1 98.469 8.531 L 92.577 22.025 L 88.01 13.289 L 83.594 22.025 Z M 60.967 21.41 L 60.967 2.064 L 66.846 2.064 L 66.846 12.496 L 72.602 8.326 Q 73.27 7.825 73.721 7.351 A 5.626 5.626 0 0 0 73.915 7.137 Q 74.265 6.728 74.539 6.61 A 0.532 0.532 0 0 1 74.749 6.563 A 1.093 1.093 0 0 1 74.977 6.584 Q 75.311 6.656 75.357 6.964 A 0.708 0.708 0 0 1 75.364 7.068 Q 75.364 7.451 74.899 7.834 L 71.413 10.527 L 76.444 21.41 L 70.333 21.41 L 66.846 13.699 L 66.846 21.41 L 60.967 21.41 Z M 37.643 21.41 L 37.643 20.508 Q 35.893 21.67 33.76 21.67 A 9.17 9.17 0 0 1 31.871 21.486 Q 30.656 21.231 29.722 20.619 A 5.468 5.468 0 0 1 29.221 20.248 A 4.778 4.778 0 0 1 27.487 16.972 A 6.877 6.877 0 0 1 27.444 16.188 A 4.851 4.851 0 0 1 27.927 14.008 A 4.922 4.922 0 0 1 29.208 12.414 A 6.279 6.279 0 0 1 31.79 11.16 Q 32.719 10.939 33.806 10.925 A 11.427 11.427 0 0 1 33.952 10.924 A 9.126 9.126 0 0 1 37.643 11.676 L 37.643 7.916 Q 36.666 7.637 35.871 7.577 A 5.616 5.616 0 0 0 35.449 7.561 A 18.393 18.393 0 0 0 34.778 7.572 Q 34.253 7.591 33.842 7.643 Q 33.186 7.725 32.598 7.889 A 7.062 7.062 0 0 0 31.813 8.155 Q 31.106 8.446 30.671 8.846 A 2.02 2.02 0 0 1 30.466 9.014 Q 30.226 9.184 30.016 9.2 A 0.57 0.57 0 0 1 29.973 9.201 Q 29.659 9.201 29.495 9.044 A 0.603 0.603 0 0 1 29.396 8.924 A 0.431 0.431 0 0 1 29.331 8.695 A 0.93 0.93 0 0 1 29.355 8.48 A 0.793 0.793 0 0 1 29.399 8.347 Q 29.451 8.228 29.573 8.105 A 1.471 1.471 0 0 1 29.659 8.025 A 2.311 2.311 0 0 1 29.96 7.809 Q 30.286 7.607 30.788 7.406 A 9.918 9.918 0 0 1 31.026 7.314 A 11.27 11.27 0 0 1 34.475 6.576 A 10.595 10.595 0 0 1 35.005 6.563 A 19.592 19.592 0 0 1 37.608 6.722 Q 40.445 7.104 41.893 8.404 A 4.348 4.348 0 0 1 42.757 9.461 A 5.042 5.042 0 0 1 43.261 10.74 Q 43.414 11.345 43.467 12.059 A 10.596 10.596 0 0 1 43.495 12.838 L 43.495 21.41 L 37.643 21.41 Z M 128.219 21.41 L 128.219 20.508 Q 126.469 21.67 124.337 21.67 A 9.17 9.17 0 0 1 122.447 21.486 Q 121.232 21.231 120.299 20.619 A 5.468 5.468 0 0 1 119.798 20.248 A 4.778 4.778 0 0 1 118.064 16.972 A 6.877 6.877 0 0 1 118.02 16.188 A 4.851 4.851 0 0 1 118.503 14.008 A 4.922 4.922 0 0 1 119.784 12.414 A 6.279 6.279 0 0 1 122.366 11.16 Q 123.295 10.939 124.382 10.925 A 11.427 11.427 0 0 1 124.528 10.924 A 9.126 9.126 0 0 1 128.219 11.676 L 128.219 7.916 Q 127.243 7.637 126.447 7.577 A 5.616 5.616 0 0 0 126.025 7.561 A 18.393 18.393 0 0 0 125.354 7.572 Q 124.829 7.591 124.419 7.643 Q 123.762 7.725 123.174 7.889 A 7.062 7.062 0 0 0 122.39 8.155 Q 121.683 8.446 121.247 8.846 A 2.02 2.02 0 0 1 121.043 9.014 Q 120.802 9.184 120.592 9.2 A 0.57 0.57 0 0 1 120.549 9.201 Q 120.235 9.201 120.071 9.044 A 0.603 0.603 0 0 1 119.973 8.924 A 0.431 0.431 0 0 1 119.907 8.695 A 0.93 0.93 0 0 1 119.931 8.48 A 0.793 0.793 0 0 1 119.975 8.347 Q 120.027 8.228 120.149 8.105 A 1.471 1.471 0 0 1 120.235 8.025 A 2.311 2.311 0 0 1 120.536 7.809 Q 120.862 7.607 121.364 7.406 A 9.918 9.918 0 0 1 121.602 7.314 A 11.27 11.27 0 0 1 125.051 6.576 A 10.595 10.595 0 0 1 125.581 6.563 A 19.592 19.592 0 0 1 128.184 6.722 Q 131.021 7.104 132.469 8.404 A 4.348 4.348 0 0 1 133.333 9.461 A 5.042 5.042 0 0 1 133.837 10.74 Q 133.991 11.345 134.043 12.059 A 10.596 10.596 0 0 1 134.071 12.838 L 134.071 21.41 L 128.219 21.41 Z M 172.462 21.41 L 172.462 20.508 Q 170.712 21.67 168.579 21.67 A 9.17 9.17 0 0 1 166.689 21.486 Q 165.475 21.231 164.541 20.619 A 5.468 5.468 0 0 1 164.04 20.248 A 4.778 4.778 0 0 1 162.306 16.972 A 6.877 6.877 0 0 1 162.262 16.188 A 4.851 4.851 0 0 1 162.746 14.008 A 4.922 4.922 0 0 1 164.026 12.414 A 6.279 6.279 0 0 1 166.608 11.16 Q 167.537 10.939 168.624 10.925 A 11.427 11.427 0 0 1 168.77 10.924 A 9.126 9.126 0 0 1 172.462 11.676 L 172.462 7.916 Q 171.485 7.637 170.689 7.577 A 5.616 5.616 0 0 0 170.267 7.561 A 18.393 18.393 0 0 0 169.596 7.572 Q 169.071 7.591 168.661 7.643 Q 168.005 7.725 167.417 7.889 A 7.062 7.062 0 0 0 166.632 8.155 Q 165.925 8.446 165.489 8.846 A 2.02 2.02 0 0 1 165.285 9.014 Q 165.045 9.184 164.834 9.2 A 0.57 0.57 0 0 1 164.792 9.201 Q 164.477 9.201 164.313 9.044 A 0.603 0.603 0 0 1 164.215 8.924 A 0.431 0.431 0 0 1 164.149 8.695 A 0.93 0.93 0 0 1 164.173 8.48 A 0.793 0.793 0 0 1 164.217 8.347 Q 164.269 8.228 164.392 8.105 A 1.471 1.471 0 0 1 164.477 8.025 A 2.311 2.311 0 0 1 164.778 7.809 Q 165.105 7.607 165.607 7.406 A 9.918 9.918 0 0 1 165.844 7.314 A 11.27 11.27 0 0 1 169.293 6.576 A 10.595 10.595 0 0 1 169.823 6.563 A 19.592 19.592 0 0 1 172.426 6.722 Q 175.264 7.104 176.711 8.404 A 4.348 4.348 0 0 1 177.575 9.461 A 5.042 5.042 0 0 1 178.08 10.74 Q 178.233 11.345 178.286 12.059 A 10.596 10.596 0 0 1 178.313 12.838 L 178.313 21.41 L 172.462 21.41 Z M 115.573 14.602 L 106.549 14.602 L 106.549 20.467 A 8.943 8.943 0 0 0 107.537 20.61 A 12.131 12.131 0 0 0 108.641 20.658 A 5.918 5.918 0 0 0 112.839 19.031 Q 113.126 18.743 113.28 18.554 A 2.195 2.195 0 0 0 113.344 18.471 A 1.519 1.519 0 0 1 113.52 18.288 Q 113.75 18.088 113.987 18.088 A 0.838 0.838 0 0 1 114.191 18.111 Q 114.52 18.194 114.52 18.58 A 0.734 0.734 0 0 1 114.464 18.848 Q 114.357 19.122 114.042 19.455 A 7.142 7.142 0 0 1 110.315 21.454 A 10.555 10.555 0 0 1 108.122 21.67 A 9.255 9.255 0 0 1 105.19 21.222 A 7.886 7.886 0 0 1 102.434 19.633 A 6.807 6.807 0 0 1 100.051 14.677 A 8.501 8.501 0 0 1 100.042 14.273 A 8.287 8.287 0 0 1 100.455 11.603 A 7.006 7.006 0 0 1 102.202 8.832 A 7.652 7.652 0 0 1 106.366 6.723 A 10.871 10.871 0 0 1 108.272 6.563 A 8.243 8.243 0 0 1 110.884 6.961 A 7.014 7.014 0 0 1 113.372 8.408 Q 115.6 10.391 115.6 13.617 A 17.805 17.805 0 0 1 115.587 14.282 A 21.056 21.056 0 0 1 115.573 14.602 Z M 143.546 22.025 L 136.04 6.809 L 142.233 6.809 L 145.952 14.479 L 148.29 9.83 A 29.268 29.268 0 0 0 148.618 9.133 Q 148.915 8.478 149.075 8.018 A 5.007 5.007 0 0 0 149.199 7.615 A 6.298 6.298 0 0 1 149.28 7.325 Q 149.404 6.918 149.529 6.767 A 0.37 0.37 0 0 1 149.568 6.727 A 0.646 0.646 0 0 1 149.977 6.564 A 0.836 0.836 0 0 1 150.019 6.563 A 0.642 0.642 0 0 1 150.199 6.586 A 0.48 0.48 0 0 1 150.436 6.74 Q 150.587 6.918 150.587 7.096 A 1.878 1.878 0 0 1 150.552 7.451 A 2.435 2.435 0 0 1 150.525 7.574 Q 150.488 7.723 150.423 7.93 Q 150.254 8.391 149.779 9.409 A 71.4 71.4 0 0 1 149.561 9.871 L 143.546 22.025 Z M 47.774 21.41 L 47.774 6.809 L 53.653 6.809 L 53.653 11.102 A 17.301 17.301 0 0 1 54.257 9.761 Q 54.936 8.42 55.683 7.663 Q 56.41 6.927 57.14 6.683 A 2.273 2.273 0 0 1 57.864 6.563 Q 58.479 6.563 58.841 6.884 A 1.265 1.265 0 0 1 59.048 7.114 A 0.848 0.848 0 0 1 59.204 7.602 Q 59.204 7.869 59.154 8.062 A 0.958 0.958 0 0 1 59.094 8.23 A 1.283 1.283 0 0 1 58.861 8.574 A 1.209 1.209 0 0 1 58.807 8.627 Q 58.578 8.839 58.364 8.92 A 0.719 0.719 0 0 1 58.11 8.969 Q 57.679 8.969 57.436 8.893 A 0.835 0.835 0 0 1 57.344 8.859 Q 57.027 8.716 56.763 8.68 A 1.263 1.263 0 0 0 56.592 8.668 Q 56.333 8.668 55.962 8.998 A 3.605 3.605 0 0 0 55.758 9.194 A 4.298 4.298 0 0 0 55.356 9.686 Q 55.174 9.943 54.997 10.255 A 8.902 8.902 0 0 0 54.788 10.65 A 10.851 10.851 0 0 0 53.653 15.572 L 53.653 21.41 L 47.774 21.41 Z M 152.965 21.41 L 152.965 6.809 L 158.844 6.809 L 158.844 21.41 L 152.965 21.41 Z M 37.643 19.332 L 37.643 12.742 A 8.491 8.491 0 0 0 35.71 12.068 A 7.181 7.181 0 0 0 34.212 11.908 A 3.271 3.271 0 0 0 33.819 11.931 A 2.858 2.858 0 0 0 33.692 11.949 L 33.692 20.645 A 0.69 0.69 0 0 0 33.773 20.656 A 0.883 0.883 0 0 0 33.842 20.658 L 34.007 20.658 Q 35.88 20.658 37.643 19.332 Z M 128.219 19.332 L 128.219 12.742 A 8.491 8.491 0 0 0 126.286 12.068 A 7.181 7.181 0 0 0 124.788 11.908 A 3.271 3.271 0 0 0 124.395 11.931 A 2.858 2.858 0 0 0 124.268 11.949 L 124.268 20.645 A 0.69 0.69 0 0 0 124.349 20.656 A 0.883 0.883 0 0 0 124.419 20.658 L 124.583 20.658 Q 126.456 20.658 128.219 19.332 Z M 172.462 19.332 L 172.462 12.742 A 8.491 8.491 0 0 0 170.528 12.068 A 7.181 7.181 0 0 0 169.03 11.908 A 3.271 3.271 0 0 0 168.637 11.931 A 2.858 2.858 0 0 0 168.51 11.949 L 168.51 20.645 A 0.69 0.69 0 0 0 168.592 20.656 A 0.883 0.883 0 0 0 168.661 20.658 L 168.825 20.658 Q 170.698 20.658 172.462 19.332 Z M 110.337 13.604 L 110.337 7.82 A 6.29 6.29 0 0 0 109.295 7.614 A 8.417 8.417 0 0 0 108.327 7.561 Q 107.257 7.561 106.61 7.698 A 3.776 3.776 0 0 0 106.549 7.711 L 106.549 13.604 L 110.337 13.604 Z M 154.979 4.348 A 5.095 5.095 0 0 0 155.837 4.416 A 6.202 6.202 0 0 0 156.037 4.413 Q 157.31 4.372 158.147 3.801 A 2.607 2.607 0 0 0 158.583 3.433 A 1.615 1.615 0 0 0 159.049 2.297 A 1.829 1.829 0 0 0 158.723 1.247 A 2.54 2.54 0 0 0 158.257 0.738 A 2.833 2.833 0 0 0 157.847 0.458 A 3.604 3.604 0 0 0 157.293 0.205 Q 156.898 0.063 156.276 0.019 A 8.497 8.497 0 0 0 155.686 0 A 3.177 3.177 0 0 0 154.736 0.144 A 3.644 3.644 0 0 0 153.717 0.656 A 2.579 2.579 0 0 0 153.275 1.043 A 1.593 1.593 0 0 0 152.842 2.133 Q 152.842 2.622 153.023 3.02 A 2.057 2.057 0 0 0 153.635 3.787 A 2.494 2.494 0 0 0 154.134 4.093 Q 154.51 4.268 154.979 4.348 Z" vector-effect="non-scaling-stroke"/></g></svg>
